{
.appVersion = "3260";
.formatVersion = 3;
DisplayStrings = (
"Příklad
V letadle na mezinárodní lince je 9 chlapců, 5 amerických dětí, 9 mužů, 7 dětí jiné státní příslušnosti, 14 Američanů, z nichž je 6 mužů, a 7 žen jiné státní příslušnosti. Kolik cestujících je v letadle?

Řešení
Nejprve určíme počet dětí: v letadle je 5 amerických dětí a 7 dětí jiné státní příslušnosti, to znamená dohromady 12 dětí. Dále je v letadle 7 žen jiné státní příslušnosti než americké a 9 mužů. K určení celkového počtu dospělých tedy zbývá zjistit, kolik amerických žen je v letadle. Ze zadání víme, že je v letadle 14 Američanů, z toho 6 mužů a 5 dětí. Počet amerických žen je proto 14−6−5=3. Dostáváme tak počet dospělých: 9+7+3=19. V letadle je tedy 12 dětí a 19 dospělých, což je dohromady 31 cestujících. Informace o tom, že v letadle je 9 chlapců, není k výpočtu potřeba."
);
date = "2024-10-14 15:19:46 +0000";
familyName = "Snaha v02";
fontMaster = (
{
guides = (
{
pos = (104,498);
},
{
pos = (113,672);
}
);
id = m01;
metricValues = (
{
over = 16;
pos = 800;
},
{
over = 16;
pos = 700;
},
{
over = 16;
pos = 700;
},
{
over = 16;
pos = 400;
},
{
over = 16;
pos = 400;
},
{
over = -16;
},
{
over = -16;
pos = -200;
}
);
name = Regular;
}
);
glyphs = (
{
glyphname = A;
lastChange = "2024-11-22 20:37:00 +0000";
layers = (
{
anchors = (
{
name = bottom;
pos = (259,0);
},
{
name = ogonek;
pos = (467,10);
},
{
name = top;
pos = (253,700);
}
);
layerId = m01;
shapes = (
{
closed = 1;
nodes = (
(440,700,l),
(112,700,l),
(112,640,l),
(280,640,l),
(280,0,l),
(440,0,l)
);
},
{
closed = 1;
nodes = (
(291,370,l),
(119,370,l),
(119,310,l),
(291,310,l)
);
},
{
closed = 1;
nodes = (
(130,700,l),
(70,700,l),
(70,0,l),
(130,0,l)
);
}
);
width = 510;
}
);
metricLeft = H;
metricRight = H;
unicode = 65;
},
{
glyphname = B;
lastChange = "2024-11-22 20:36:30 +0000";
layers = (
{
layerId = m01;
shapes = (
{
closed = 1;
nodes = (
(443,0,l),
(443,700,l),
(112,700,l),
(112,640,l),
(283,640,l),
(283,0,l)
);
},
{
closed = 1;
nodes = (
(294,0,l),
(294,60,l),
(119,60,l),
(119,0,l)
);
},
{
closed = 1;
nodes = (
(130,0,l),
(130,700,l),
(70,700,l),
(70,0,l)
);
},
{
closed = 1;
nodes = (
(294,310,l),
(294,370,l),
(119,370,l),
(119,310,l)
);
},
{
closed = 1;
nodes = (
(387,370,l),
(444,370,l),
(444,310,l),
(387,310,l)
);
}
);
width = 514;
}
);
metricLeft = H;
metricRight = H;
unicode = 66;
},
{
glyphname = C;
lastChange = "2024-11-22 15:04:38 +0000";
layers = (
{
anchors = (
{
name = bottom;
pos = (204,0);
},
{
name = top;
pos = (221,700);
}
);
layerId = m01;
shapes = (
{
closed = 1;
nodes = (
(70,700,l),
(70,1,l),
(373,1,l),
(373,59,l),
(221,59,l),
(221,642,l),
(373,642,l),
(373,700,l)
);
}
);
width = 408;
}
);
metricLeft = H;
metricRight = "=H/2";
unicode = 67;
},
{
glyphname = D;
lastChange = "2024-11-22 11:41:53 +0000";
layers = (
{
anchors = (
{
name = bottom;
pos = (240,0);
},
{
name = center;
pos = (120,350);
},
{
name = top;
pos = (240,655);
}
);
layerId = m01;
shapes = (
{
closed = 1;
nodes = (
(410,700,l),
(70,700,l),
(70,0,l),
(410,0,l)
);
},
{
closed = 1;
nodes = (
(230,61,l),
(230,639,l),
(350,639,l),
(350,61,l)
);
}
);
width = 480;
}
);
metricLeft = H;
metricRight = H;
unicode = 68;
},
{
glyphname = E;
lastChange = "2024-11-22 20:36:01 +0000";
layers = (
{
anchors = (
{
name = bottom;
pos = (243,0);
},
{
name = ogonek;
pos = (431,10);
},
{
name = top;
pos = (238,700);
},
{
name = topleft;
pos = (28,700);
}
);
layerId = m01;
shapes = (
{
closed = 1;
nodes = (
(230,0,l),
(230,700,l),
(70,700,l),
(70,0,l)
);
},
{
closed = 1;
nodes = (
(424,0,l),
(424,60,l),
(219,60,l),
(219,0,l)
);
},
{
closed = 1;
nodes = (
(404,311,l),
(404,371,l),
(209,370,l),
(209,310,l)
);
},
{
closed = 1;
nodes = (
(414,640,l),
(414,700,l),
(219,700,l),
(219,640,l)
);
}
);
width = 459;
}
);
metricLeft = H;
metricRight = "=H/2";
unicode = 69;
},
{
glyphname = F;
lastChange = "2024-11-07 16:15:51 +0000";
layers = (
{
layerId = m01;
shapes = (
{
closed = 1;
nodes = (
(231,0,l),
(231,700,l),
(70,700,l),
(70,0,l)
);
},
{
closed = 1;
nodes = (
(231,0,l),
(231,700,l),
(174,700,l),
(174,0,l)
);
},
{
closed = 1;
nodes = (
(395,283,l),
(395,340,l),
(220,340,l),
(220,283,l)
);
},
{
closed = 1;
nodes = (
(415,643,l),
(415,700,l),
(220,700,l),
(220,643,l)
);
}
);
width = 450;
}
);
metricLeft = H;
metricRight = "=H/2";
unicode = 70;
},
{
glyphname = G;
lastChange = "2024-11-07 16:06:30 +0000";
layers = (
{
layerId = m01;
shapes = (
{
closed = 1;
nodes = (
(230,0,l),
(230,700,l),
(70,700,l),
(70,0,l)
);
},
{
closed = 1;
nodes = (
(394,0,l),
(394,60,l),
(219,60,l),
(219,0,l)
);
},
{
closed = 1;
nodes = (
(443,0,l),
(443,340,l),
(383,340,l),
(383,0,l)
);
},
{
closed = 1;
nodes = (
(394,280,l),
(394,340,l),
(312,340,l),
(312,280,l)
);
},
{
closed = 1;
nodes = (
(440,640,l),
(439,700,l),
(169,700,l),
(169,640,l)
);
}
);
width = 478;
}
);
metricLeft = H;
metricRight = "=H/2";
unicode = 71;
},
{
color = 4;
glyphname = H;
lastChange = "2024-11-22 20:35:25 +0000";
layers = (
{
layerId = m01;
shapes = (
{
closed = 1;
nodes = (
(283,700,l),
(443,700,l),
(443,0,l),
(283,0,l)
);
},
{
closed = 1;
nodes = (
(130,700,l),
(130,0,l),
(70,0,l),
(70,700,l)
);
},
{
closed = 1;
nodes = (
(294,370,l),
(294,310,l),
(119,310,l),
(119,370,l)
);
}
);
width = 513;
}
);
unicode = 72;
},
{
glyphname = I;
lastChange = "2024-11-22 11:07:05 +0000";
layers = (
{
anchors = (
{
name = bottom;
pos = (100,0);
},
{
name = ogonek;
pos = (216,10);
},
{
name = top;
pos = (100,700);
},
{
name = topleft;
pos = (-25,700);
}
);
layerId = m01;
shapes = (
{
closed = 1;
nodes = (
(70,700,l),
(70,0,l),
(130,0,l),
(130,700,l)
);
}
);
width = 200;
}
);
metricLeft = H;
metricRight = H;
unicode = 73;
},
{
glyphname = J;
lastChange = "2024-09-13 15:36:17 +0000";
layers = (
{
layerId = m01;
shapes = (
{
closed = 1;
nodes = (
(435,0,l),
(60,0,l),
(60,250,l),
(116,250,l),
(116,50,l),
(285,50,l),
(285,700,l),
(435,700,l),
(435,650,l)
);
}
);
width = 500;
}
);
unicode = 74;
},
{
glyphname = K;
lastChange = "2024-11-09 17:45:56 +0000";
layers = (
{
layerId = m01;
shapes = (
{
closed = 1;
nodes = (
(127,0,l),
(127,700,l),
(70,700,l),
(70,0,l)
);
},
{
closed = 1;
nodes = (
(280,343,l),
(280,400,l),
(122,400,l),
(122,343,l)
);
},
{
closed = 1;
nodes = (
(280,400,l),
(441,400,l),
(441,700,l),
(280,700,l)
);
},
{
closed = 1;
nodes = (
(280,0,l),
(441,0,l),
(441,343,l),
(280,343,l)
);
}
);
width = 511;
}
);
metricLeft = H;
metricRight = H;
unicode = 75;
},
{
glyphname = L;
lastChange = "2024-11-23 10:58:45 +0000";
layers = (
{
anchors = (
{
name = bottom;
pos = (209,0);
},
{
name = center;
pos = (209,350);
},
{
name = top;
pos = (209,700);
},
{
name = topright;
pos = (398,700);
}
);
layerId = m01;
shapes = (
{
closed = 1;
nodes = (
(70,700,l),
(70,0,l),
(383,0,l),
(383,60,l),
(230,60,l),
(230,700,l)
);
}
);
width = 418;
}
);
metricLeft = H;
metricRight = "=H/2";
unicode = 76;
},
{
glyphname = Lcaron;
lastChange = "2024-11-23 11:17:28 +0000";
layers = (
{
layerId = m01;
shapes = (
{
pos = (-11,0);
ref = L;
},
{
closed = 1;
nodes = (
(341,539,l),
(341,699,l),
(281,699,l),
(281,539,l)
);
}
);
width = 418;
}
);
unicode = 317;
},
{
glyphname = M;
lastChange = "2024-11-07 16:02:30 +0000";
layers = (
{
layerId = m01;
shapes = (
{
closed = 1;
nodes = (
(654,0,l),
(654,700,l),
(494,700,l),
(494,0,l)
);
},
{
closed = 1;
nodes = (
(130,0,l),
(130,700,l),
(70,700,l),
(70,0,l)
);
},
{
closed = 1;
nodes = (
(342,0,l),
(131,700,l),
(74,700,l),
(285,0,l)
);
},
{
closed = 1;
nodes = (
(552,700,l),
(495,700,l),
(284,0,l),
(341,0,l)
);
}
);
width = 724;
}
);
metricLeft = H;
metricRight = H;
unicode = 77;
},
{
glyphname = N;
lastChange = "2024-11-23 11:19:44 +0000";
layers = (
{
anchors = (
{
name = bottom;
pos = (256,0);
},
{
name = top;
pos = (256,700);
}
);
layerId = m01;
shapes = (
{
closed = 1;
nodes = (
(441,0,l),
(441,700,l),
(280,700,l),
(280,0,l)
);
},
{
closed = 1;
nodes = (
(127,0,l),
(127,700,l),
(70,700,l),
(70,0,l)
);
},
{
closed = 1;
nodes = (
(338,0,l),
(127,700,l),
(70,700,l),
(281,0,l)
);
}
);
width = 511;
}
);
metricLeft = H;
metricRight = H;
unicode = 78;
},
{
glyphname = O;
lastChange = "2024-11-22 15:10:38 +0000";
layers = (
{
anchors = (
{
name = bottom;
pos = (252,0);
},
{
name = center;
pos = (252,350);
},
{
name = ogonek;
pos = (452,10);
},
{
name = top;
pos = (252,700);
},
{
name = topleft;
pos = (22,700);
},
{
name = topright;
pos = (482,700);
}
);
layerId = m01;
shapes = (
{
closed = 1;
nodes = (
(440,0,l),
(440,700,l),
(70,700,l),
(70,0,l)
);
},
{
closed = 1;
nodes = (
(130,639,l),
(280,639,l),
(280,61,l),
(130,61,l)
);
}
);
width = 510;
}
);
metricLeft = H;
metricRight = H;
unicode = 79;
},
{
glyphname = P;
lastChange = "2024-11-07 16:15:51 +0000";
layers = (
{
layerId = m01;
shapes = (
{
closed = 1;
nodes = (
(441,283,l),
(441,700,l),
(109,700,l),
(109,643,l),
(280,643,l),
(280,283,l)
);
},
{
closed = 1;
nodes = (
(127,0,l),
(127,700,l),
(70,700,l),
(70,0,l)
);
},
{
closed = 1;
nodes = (
(291,283,l),
(291,340,l),
(116,340,l),
(116,283,l)
);
}
);
width = 476;
}
);
metricLeft = H;
metricRight = "=H/2";
unicode = 80;
},
{
glyphname = Q;
lastChange = "2024-11-22 11:35:08 +0000";
layers = (
{
layerId = m01;
shapes = (
{
closed = 1;
nodes = (
(226,-123,l),
(226,134,l),
(169,134,l),
(169,-123,l)
);
},
{
ref = O;
}
);
width = 510;
}
);
metricLeft = H;
metricRight = H;
unicode = 81;
},
{
glyphname = R;
lastChange = "2024-11-22 22:23:08 +0000";
layers = (
{
anchors = (
{
name = bottom;
pos = (257,0);
},
{
name = top;
pos = (257,700);
}
);
layerId = m01;
shapes = (
{
closed = 1;
nodes = (
(443,0,l),
(443,700,l),
(112,700,l),
(112,640,l),
(283,640,l),
(283,0,l)
);
},
{
closed = 1;
nodes = (
(130,0,l),
(130,700,l),
(70,700,l),
(70,0,l)
);
},
{
closed = 1;
nodes = (
(294,310,l),
(294,370,l),
(119,370,l),
(119,310,l)
);
},
{
closed = 1;
nodes = (
(387,370,l),
(444,370,l),
(444,310,l),
(387,310,l)
);
}
);
width = 514;
}
);
metricLeft = H;
metricRight = H;
unicode = 82;
},
{
glyphname = S;
lastChange = "2024-11-22 15:04:27 +0000";
layers = (
{
anchors = (
{
name = bottom;
pos = (275,0);
},
{
name = top;
pos = (350,700);
}
);
layerId = m01;
shapes = (
{
closed = 1;
nodes = (
(350,0,l),
(35,0,l),
(35,250,l),
(91,250,l),
(91,50,l),
(200,50,l),
(200,700,l),
(515,700,l),
(515,450,l),
(465,450,l),
(465,650,l),
(350,650,l)
);
}
);
width = 550;
}
);
metricLeft = "=H/2";
metricRight = "=H/2";
unicode = 83;
},
{
glyphname = T;
lastChange = "2024-11-22 15:02:46 +0000";
layers = (
{
anchors = (
{
name = bottom;
pos = (260,0);
},
{
name = center;
pos = (260,350);
},
{
name = top;
pos = (260,700);
}
);
layerId = m01;
shapes = (
{
closed = 1;
nodes = (
(185,650,l),
(35,650,l),
(35,700,l),
(485,700,l),
(485,650,l),
(335,650,l),
(335,0,l),
(185,0,l)
);
}
);
width = 520;
}
);
metricLeft = "=H/2";
metricRight = "=H/2";
unicode = 84;
},
{
glyphname = U;
lastChange = "2024-11-09 15:08:10 +0000";
layers = (
{
anchors = (
{
name = bottom;
pos = (263,0);
},
{
name = ogonek;
pos = (463,10);
},
{
name = top;
pos = (263,700);
},
{
name = topright;
pos = (493,700);
}
);
layerId = m01;
shapes = (
{
closed = 1;
nodes = (
(440,0,l),
(440,700,l),
(280,700,l),
(280,60,l),
(112,60,l),
(112,0,l)
);
},
{
closed = 1;
nodes = (
(130,0,l),
(130,700,l),
(70,700,l),
(70,0,l)
);
}
);
width = 510;
}
);
metricLeft = H;
metricRight = H;
unicode = 85;
},
{
glyphname = V;
lastChange = "2024-11-22 20:01:29 +0000";
layers = (
{
layerId = m01;
shapes = (
{
closed = 1;
nodes = (
(404,700,l),
(243,700,l),
(222,0,l),
(401,0,l)
);
},
{
closed = 1;
nodes = (
(90,700,l),
(35,689,l),
(183,0,l),
(240,0,l)
);
}
);
width = 474;
}
);
metricLeft = "=H/2";
metricRight = H;
unicode = 86;
},
{
glyphname = W;
lastChange = "2024-11-22 20:02:28 +0000";
layers = (
{
layerId = m01;
shapes = (
{
closed = 1;
nodes = (
(718,700,l),
(557,700,l),
(536,0,l),
(715,0,l)
);
},
{
closed = 1;
nodes = (
(404,700,l),
(347,700,l),
(497,0,l),
(554,0,l)
);
},
{
closed = 1;
nodes = (
(406,700,l),
(245,700,l),
(224,0,l),
(403,0,l)
);
},
{
closed = 1;
nodes = (
(92,700,l),
(35,700,l),
(185,0,l),
(242,0,l)
);
}
);
width = 788;
}
);
metricLeft = "=H/2";
metricRight = H;
unicode = 87;
},
{
glyphname = X;
lastChange = "2024-11-22 20:34:28 +0000";
layers = (
{
layerId = m01;
shapes = (
{
closed = 1;
nodes = (
(370,0,l),
(370,700,l),
(210,700,l),
(210,0,l)
);
},
{
closed = 1;
nodes = (
(35,700,l),
(260,256,l),
(306,281,l),
(92,700,l)
);
},
{
closed = 1;
nodes = (
(548,0,l),
(323,444,l),
(277,419,l),
(491,0,l)
);
}
);
width = 583;
}
);
metricLeft = "=H/2";
metricRight = "=H/2";
unicode = 88;
},
{
glyphname = Y;
lastChange = "2024-11-23 11:51:02 +0000";
layers = (
{
anchors = (
{
name = bottom;
pos = (208,0);
},
{
name = top;
pos = (208,700);
},
{
name = topleft;
pos = (-15,700);
}
);
layerId = m01;
shapes = (
{
closed = 1;
nodes = (
(405,0,l),
(405,700,l),
(245,700,l),
(245,0,l)
);
},
{
closed = 1;
nodes = (
(35,700,l),
(260,256,l),
(306,281,l),
(92,700,l)
);
}
);
width = 475;
}
);
metricLeft = "=H/2";
metricRight = H;
unicode = 89;
},
{
glyphname = Z;
lastChange = "2024-11-22 15:04:13 +0000";
layers = (
{
anchors = (
{
name = bottom;
pos = (275,0);
},
{
name = center;
pos = (275,350);
},
{
name = top;
pos = (199,700);
}
);
layerId = m01;
shapes = (
{
closed = 1;
nodes = (
(85,650,l),
(85,450,l),
(35,450,l),
(35,700,l),
(350,700,l),
(350,50,l),
(459,50,l),
(459,250,l),
(515,250,l),
(515,0,l),
(200,0,l),
(200,650,l)
);
}
);
width = 550;
}
);
metricLeft = "=H/2";
metricRight = "=H/2";
unicode = 90;
},
{
glyphname = I.001;
lastChange = "2024-10-10 10:34:42 +0000";
layers = (
{
layerId = m01;
shapes = (
{
closed = 1;
nodes = (
(105,700,l),
(105,1,l),
(255,1,l),
(255,700,l)
);
}
);
width = 360;
}
);
},
{
glyphname = M.001;
lastChange = "2024-11-22 15:02:09 +0000";
layers = (
{
layerId = m01;
shapes = (
{
closed = 1;
nodes = (
(755,0,l),
(755,700,l),
(423,700,l),
(423,643,l),
(594,643,l),
(594,0,l)
);
},
{
closed = 1;
nodes = (
(127,0,l),
(127,700,l),
(70,700,l),
(70,0,l)
);
},
{
closed = 1;
nodes = (
(441,0,l),
(441,700,l),
(109,700,l),
(109,643,l),
(280,643,l),
(280,0,l)
);
}
);
width = 825;
}
);
metricLeft = H;
metricRight = H;
},
{
glyphname = N.001;
lastChange = "2024-11-07 16:15:51 +0000";
layers = (
{
layerId = m01;
shapes = (
{
closed = 1;
nodes = (
(441,0,l),
(441,700,l),
(109,700,l),
(109,643,l),
(280,643,l),
(280,0,l)
);
},
{
closed = 1;
nodes = (
(127,0,l),
(127,700,l),
(70,700,l),
(70,0,l)
);
}
);
width = 511;
}
);
metricLeft = H;
metricRight = H;
},
{
glyphname = S.001;
lastChange = "2024-11-07 16:15:51 +0000";
layers = (
{
layerId = m01;
shapes = (
{
closed = 1;
nodes = (
(410,0,l),
(35,0,l),
(35,250,l),
(91,250,l),
(91,50,l),
(260,50,l),
(260,700,l),
(635,700,l),
(635,450,l),
(585,450,l),
(585,650,l),
(410,650,l)
);
}
);
width = 670;
}
);
metricLeft = "=H/2";
metricRight = "=H/2";
},
{
glyphname = V.001;
lastChange = "2024-11-07 16:15:51 +0000";
layers = (
{
layerId = m01;
shapes = (
{
closed = 1;
nodes = (
(402,0,l),
(402,57,l),
(231,57,l),
(231,700,l),
(70,700,l),
(70,0,l)
);
},
{
closed = 1;
nodes = (
(441,0,l),
(441,700,l),
(384,700,l),
(384,0,l)
);
}
);
width = 511;
}
);
metricLeft = H;
metricRight = H;
},
{
glyphname = V.002;
lastChange = "2024-11-07 16:15:30 +0000";
layers = (
{
layerId = m01;
shapes = (
{
closed = 1;
nodes = (
(367,0,l),
(367,57,l),
(349,57,l),
(196,700,l),
(35,700,l),
(188,0,l)
);
},
{
closed = 1;
nodes = (
(406,0,l),
(406,700,l),
(349,700,l),
(349,0,l)
);
}
);
width = 476;
}
);
metricLeft = "=H/2";
metricRight = H;
},
{
glyphname = V.003;
lastChange = "2024-11-22 20:21:15 +0000";
layers = (
{
layerId = m01;
shapes = (
{
closed = 1;
nodes = (
(252,0,l),
(231,700,l),
(70,700,l),
(73,0,l)
);
},
{
closed = 1;
nodes = (
(291,0,l),
(439,689,l),
(384,700,l),
(234,0,l)
);
}
);
width = 474;
}
);
metricLeft = H;
metricRight = "=H/2";
},
{
glyphname = W.001;
lastChange = "2024-11-22 11:38:10 +0000";
layers = (
{
layerId = m01;
shapes = (
{
closed = 1;
nodes = (
(252,0,l),
(231,700,l),
(70,700,l),
(73,0,l)
);
},
{
closed = 1;
nodes = (
(291,0,l),
(441,700,l),
(384,700,l),
(234,0,l)
);
},
{
closed = 1;
nodes = (
(564,0,l),
(543,700,l),
(382,700,l),
(385,0,l)
);
},
{
closed = 1;
nodes = (
(603,0,l),
(753,700,l),
(696,700,l),
(546,0,l)
);
}
);
width = 788;
}
);
metricLeft = H;
metricRight = "=H/2";
},
{
glyphname = X.001;
lastChange = "2024-11-22 22:19:42 +0000";
layers = (
{
layerId = m01;
shapes = (
{
closed = 1;
nodes = (
(352,700,l),
(191,700,l),
(191,0,l),
(352,0,l)
);
},
{
closed = 1;
nodes = (
(507,366,l),
(450,366,l),
(450,0,l),
(507,0,l)
);
},
{
closed = 1;
nodes = (
(507,379,l),
(35,379,l),
(35,322,l),
(507,322,l)
);
},
{
closed = 1;
nodes = (
(92,700,l),
(35,700,l),
(35,334,l),
(92,334,l)
);
}
);
width = 542;
}
);
metricLeft = "=H/2";
metricRight = "=H/2";
},
{
glyphname = Y.001;
lastChange = "2024-11-21 11:50:11 +0000";
layers = (
{
layerId = m01;
shapes = (
{
closed = 1;
nodes = (
(406,0,l),
(406,700,l),
(245,700,l),
(245,0,l)
);
},
{
closed = 1;
nodes = (
(256,283,l),
(256,340,l),
(81,340,l),
(81,283,l)
);
},
{
closed = 1;
nodes = (
(92,283,l),
(92,700,l),
(35,700,l),
(35,283,l)
);
}
);
width = 476;
}
);
metricLeft = "=H/2";
metricRight = H;
},
{
glyphname = Y.002;
lastChange = "2024-11-22 20:01:46 +0000";
layers = (
{
anchors = (
{
name = bottom;
pos = (243,0);
},
{
name = top;
pos = (243,700);
},
{
name = topleft;
pos = (20,700);
}
);
layerId = m01;
shapes = (
{
closed = 1;
nodes = (
(230,700,l),
(70,700,l),
(70,0,l),
(230,0,l)
);
},
{
closed = 1;
nodes = (
(440,675,l),
(394,700,l),
(169,256,l),
(226,256,l)
);
}
);
width = 475;
}
);
metricLeft = H;
metricRight = "=H/2";
},
{
glyphname = a;
lastChange = "2024-11-20 19:51:46 +0000";
layers = (
{
anchors = (
{
name = bottom;
pos = (210,0);
},
{
name = ogonek;
pos = (402,10);
},
{
name = top;
pos = (210,400);
}
);
layerId = m01;
shapes = (
{
closed = 1;
nodes = (
(209,340,l),
(35,340,l),
(35,400,l),
(369,400,l),
(369,0,l),
(35,0,l),
(35,235,l),
(209,235,l)
);
},
{
closed = 1;
nodes = (
(95,60,l),
(209,60,l),
(209,175,l),
(95,175,l)
);
}
);
width = 439;
}
);
metricLeft = "=H/2";
metricRight = H;
unicode = 97;
},
{
glyphname = b;
lastChange = "2024-11-23 13:18:23 +0000";
layers = (
{
layerId = m01;
shapes = (
{
closed = 1;
nodes = (
(70,0,l),
(70,700,l),
(127,700,l),
(127,400,l),
(414,400,l),
(414,0,l)
);
},
{
closed = 1;
nodes = (
(242,58,l),
(242,345,l),
(127,345,l),
(127,58,l)
);
}
);
width = 449;
}
);
metricLeft = H;
metricRight = "=H/2";
unicode = 98;
},
{
glyphname = c;
lastChange = "2024-11-23 13:18:32 +0000";
layers = (
{
anchors = (
{
name = bottom;
pos = (241,0);
},
{
name = top;
pos = (241,363);
}
);
layerId = m01;
shapes = (
{
closed = 1;
nodes = (
(242,57,l),
(242,343,l),
(413,343,l),
(413,400,l),
(70,400,l),
(70,0,l),
(413,0,l),
(413,57,l)
);
}
);
width = 448;
}
);
metricLeft = H;
metricRight = "=H/2";
unicode = 99;
},
{
glyphname = d;
lastChange = "2024-11-23 13:05:18 +0000";
layers = (
{
layerId = m01;
shapes = (
{
closed = 1;
nodes = (
(35,400,l),
(322,400,l),
(322,700,l),
(379,700,l),
(379,0,l),
(35,0,l)
);
},
{
closed = 1;
nodes = (
(322,345,l),
(207,345,l),
(207,58,l),
(322,58,l)
);
}
);
width = 449;
}
);
metricLeft = "=H/2";
metricRight = H;
unicode = 100;
},
{
glyphname = dcaron;
lastChange = "2024-11-23 11:18:56 +0000";
layers = (
{
layerId = m01;
shapes = (
{
ref = d;
},
{
closed = 1;
nodes = (
(533,539,l),
(533,699,l),
(473,699,l),
(473,539,l)
);
}
);
width = 500;
}
);
unicode = 271;
},
{
glyphname = e;
lastChange = "2024-11-23 12:51:31 +0000";
layers = (
{
anchors = (
{
name = bottom;
pos = (225,0);
},
{
name = ogonek;
pos = (404,10);
},
{
name = top;
pos = (225,400);
}
);
layerId = m01;
shapes = (
{
closed = 1;
nodes = (
(242,57,l),
(414,57,l),
(414,0,l),
(70,0,l),
(70,400,l),
(414,400,l),
(414,171,l),
(242,171,l)
);
},
{
closed = 1;
nodes = (
(242,229,l),
(356,229,l),
(356,343,l),
(242,343,l)
);
}
);
width = 449;
}
);
metricLeft = H;
metricRight = "=H/2";
unicode = 101;
},
{
glyphname = f;
lastChange = "2024-11-23 13:18:48 +0000";
layers = (
{
layerId = m01;
shapes = (
{
closed = 1;
nodes = (
(70,0,l),
(156,0,l),
(156,700,l),
(70,700,l)
);
},
{
closed = 1;
nodes = (
(127,642,l),
(270,642,l),
(270,700,l),
(127,700,l)
);
},
{
closed = 1;
nodes = (
(100,341,l),
(243,341,l),
(243,399,l),
(100,399,l)
);
}
);
width = 305;
}
);
metricLeft = H;
metricRight = "=H/2";
unicode = 102;
},
{
glyphname = g;
lastChange = "2024-11-23 13:18:04 +0000";
layers = (
{
layerId = m01;
shapes = (
{
closed = 1;
nodes = (
(377,-200,l),
(377,400,l),
(35,400,l),
(35,0,l),
(206,0,l),
(206,-143,l),
(35,-143,l),
(35,-200,l)
);
},
{
closed = 1;
nodes = (
(92,343,l),
(206,343,l),
(206,57,l),
(92,57,l)
);
}
);
width = 447;
}
);
metricLeft = "=H/2";
metricRight = H;
unicode = 103;
},
{
glyphname = h;
lastChange = "2024-11-23 13:20:29 +0000";
layers = (
{
layerId = m01;
shapes = (
{
closed = 1;
nodes = (
(70,0,l),
(70,700,l),
(128,700,l),
(128,399,l),
(413,400,l),
(413,0,l),
(242,0,l),
(242,342,l),
(128,342,l),
(128,0,l)
);
}
);
width = 448;
}
);
metricLeft = H;
metricRight = "=H/2";
unicode = 104;
},
{
glyphname = i;
lastChange = "2024-11-23 13:20:35 +0000";
layers = (
{
layerId = m01;
shapes = (
{
closed = 1;
nodes = (
(80,0,l),
(140,0,l),
(140,400,l),
(80,400,l)
);
},
{
closed = 1;
nodes = (
(146,488,l),
(146,564,l),
(70,564,l),
(70,488,l)
);
}
);
width = 216;
}
);
metricLeft = H;
metricRight = H;
unicode = 105;
},
{
glyphname = iacute;
lastChange = "2024-11-23 13:20:43 +0000";
layers = (
{
layerId = m01;
shapes = (
{
closed = 1;
nodes = (
(72,0,l),
(132,0,l),
(132,400,l),
(72,400,l)
);
},
{
pos = (-20,0);
ref = acute;
}
);
width = 202;
}
);
metricLeft = H;
metricRight = H;
unicode = 237;
},
{
glyphname = j;
lastChange = "2024-11-23 13:20:51 +0000";
layers = (
{
layerId = m01;
shapes = (
{
closed = 1;
nodes = (
(193,-200,l),
(35,-200,l),
(35,-143,l),
(136,-143,l),
(135,400,l),
(193,400,l)
);
},
{
closed = 1;
nodes = (
(201,488,l),
(201,564,l),
(125,564,l),
(125,488,l)
);
}
);
width = 271;
}
);
metricLeft = "=H/2";
metricRight = H;
unicode = 106;
},
{
glyphname = jdotless;
lastChange = "2024-09-13 21:34:05 +0000";
layers = (
{
layerId = m01;
shapes = (
{
closed = 1;
nodes = (
(194,-200,l),
(36,-200,l),
(36,-143,l),
(137,-143,l),
(136,400,l),
(194,400,l)
);
}
);
width = 280;
}
);
unicode = 567;
},
{
glyphname = k;
lastChange = "2024-11-23 13:20:57 +0000";
layers = (
{
layerId = m01;
shapes = (
{
closed = 1;
nodes = (
(70,0,l),
(70,699,l),
(127,699,l),
(127,228,l),
(241,228,l),
(241,399,l),
(412,400,l),
(412,0,l),
(241,0,l),
(241,171,l),
(127,171,l),
(127,0,l)
);
}
);
width = 447;
}
);
metricLeft = H;
metricRight = "=H/2";
unicode = 107;
},
{
glyphname = l;
lastChange = "2024-11-23 11:22:44 +0000";
layers = (
{
anchors = (
{
name = bottom;
pos = (100,0);
},
{
name = center;
pos = (100,200);
},
{
name = top;
pos = (100,700);
},
{
name = topright;
pos = (180,800);
}
);
layerId = m01;
shapes = (
{
closed = 1;
nodes = (
(70,0,l),
(130,0,l),
(130,700,l),
(70,700,l)
);
}
);
width = 200;
}
);
metricLeft = H;
metricRight = H;
unicode = 108;
},
{
glyphname = lcaron;
lastChange = "2024-11-23 11:18:16 +0000";
layers = (
{
layerId = m01;
shapes = (
{
ref = l;
},
{
closed = 1;
nodes = (
(240,541,l),
(240,701,l),
(180,701,l),
(180,541,l)
);
}
);
width = 200;
}
);
unicode = 318;
},
{
glyphname = m;
lastChange = "2024-11-23 13:19:01 +0000";
layers = (
{
layerId = m01;
shapes = (
{
closed = 1;
nodes = (
(269,343,l),
(355,343,l),
(355,0,l),
(526,0,l),
(526,400,l),
(70,400,l),
(70,0,l),
(127,0,l),
(127,343,l),
(212,343,l),
(212,1,l),
(269,0,l)
);
}
);
width = 596;
}
);
metricLeft = H;
metricRight = H;
unicode = 109;
},
{
glyphname = n;
lastChange = "2024-11-23 11:23:01 +0000";
layers = (
{
anchors = (
{
name = bottom;
pos = (241,0);
},
{
name = top;
pos = (241,400);
}
);
layerId = m01;
shapes = (
{
closed = 1;
nodes = (
(127,342,l),
(127,0,l),
(70,0,l),
(70,400,l),
(412,400,l),
(412,0,l),
(241,0,l),
(241,342,l)
);
}
);
width = 482;
}
);
metricLeft = H;
metricRight = H;
unicode = 110;
},
{
glyphname = o;
lastChange = "2024-11-09 15:04:14 +0000";
layers = (
{
anchors = (
{
name = bottom;
pos = (242,0);
},
{
name = center;
pos = (242,200);
},
{
name = ogonek;
pos = (442,10);
},
{
name = top;
pos = (187,400);
},
{
name = topright;
pos = (472,400);
}
);
layerId = m01;
shapes = (
{
closed = 1;
nodes = (
(413,0,l),
(413,400,l),
(70,400,l),
(70,0,l)
);
},
{
closed = 1;
nodes = (
(127,343,l),
(241,343,l),
(241,57,l),
(127,57,l)
);
}
);
width = 483;
}
);
metricLeft = H;
metricRight = H;
unicode = 111;
},
{
glyphname = p;
lastChange = "2024-11-23 13:19:16 +0000";
layers = (
{
layerId = m01;
shapes = (
{
closed = 1;
nodes = (
(127,-200,l),
(127,-1,l),
(412,-1,l),
(412,400,l),
(70,400,l),
(70,-200,l)
);
},
{
closed = 1;
nodes = (
(127,343,l),
(241,343,l),
(241,56,l),
(127,56,l)
);
}
);
width = 482;
}
);
metricLeft = H;
metricRight = H;
unicode = 112;
},
{
glyphname = q;
lastChange = "2024-11-23 13:19:22 +0000";
layers = (
{
layerId = m01;
shapes = (
{
closed = 1;
nodes = (
(412,400,l),
(70,400,l),
(70,-1,l),
(355,-1,l),
(355,-200,l),
(412,-200,l)
);
},
{
closed = 1;
nodes = (
(241,56,l),
(241,343,l),
(355,343,l),
(355,56,l)
);
}
);
width = 482;
}
);
metricLeft = H;
metricRight = H;
unicode = 113;
},
{
glyphname = r;
lastChange = "2024-11-23 11:23:33 +0000";
layers = (
{
anchors = (
{
name = bottom;
pos = (210,0);
},
{
name = top;
pos = (210,400);
}
);
layerId = m01;
shapes = (
{
closed = 1;
nodes = (
(384,343,l),
(241,343,l),
(241,0,l),
(70,0,l),
(70,400,l),
(384,400,l)
);
}
);
width = 419;
}
);
metricLeft = H;
metricRight = "=H/2";
unicode = 114;
},
{
glyphname = s;
lastChange = "2024-11-23 13:19:33 +0000";
layers = (
{
anchors = (
{
name = bottom;
pos = (263,0);
},
{
name = top;
pos = (278,400);
}
);
layerId = m01;
shapes = (
{
closed = 1;
nodes = (
(349,0,l),
(35,0,l),
(35,57,l),
(178,57,l),
(178,400,l),
(492,400,l),
(492,342,l),
(349,342,l)
);
}
);
width = 527;
}
);
metricLeft = "=H/2";
metricRight = "=H/2";
unicode = 115;
},
{
glyphname = t;
lastChange = "2024-11-20 19:51:03 +0000";
layers = (
{
layerId = m01;
shapes = (
{
closed = 1;
nodes = (
(118,340,l),
(35,340,l),
(35,400,l),
(118,400,l),
(118,700,l),
(178,700,l),
(178,400,l),
(292,400,l),
(292,340,l),
(178,341,l),
(178,0,l),
(118,0,l)
);
}
);
width = 327;
}
);
metricLeft = "=H/2";
metricRight = "=H/2";
unicode = 116;
},
{
glyphname = tcaron;
lastChange = "2024-11-23 11:18:34 +0000";
layers = (
{
layerId = m01;
shapes = (
{
ref = t;
},
{
closed = 1;
nodes = (
(291,539,l),
(291,699,l),
(231,699,l),
(231,539,l)
);
}
);
width = 327;
}
);
unicode = 357;
},
{
glyphname = u;
lastChange = "2024-11-23 13:19:43 +0000";
layers = (
{
anchors = (
{
name = bottom;
pos = (243,0);
},
{
name = ogonek;
pos = (443,10);
},
{
name = top;
pos = (188,400);
},
{
name = topright;
pos = (473,400);
}
);
layerId = m01;
shapes = (
{
closed = 1;
nodes = (
(241,400,l),
(70,400,l),
(70,0,l),
(413,0,l),
(413,400,l),
(355,400,l),
(355,57,l),
(241,57,l)
);
}
);
width = 483;
}
);
metricLeft = H;
metricRight = H;
unicode = 117;
},
{
glyphname = v;
lastChange = "2024-11-22 11:07:28 +0000";
layers = (
{
layerId = m01;
shapes = (
{
closed = 1;
nodes = (
(398,0,l),
(398,400,l),
(238,400,l),
(238,0,l)
);
},
{
closed = 1;
nodes = (
(295,0,l),
(92,400,l),
(35,400,l),
(238,0,l)
);
}
);
width = 468;
}
);
metricLeft = "=H/2";
metricRight = H;
unicode = 118;
},
{
glyphname = w;
lastChange = "2024-11-23 11:50:45 +0000";
layers = (
{
layerId = m01;
shapes = (
{
closed = 1;
nodes = (
(398,0,l),
(398,400,l),
(238,400,l),
(238,0,l)
);
},
{
closed = 1;
nodes = (
(295,0,l),
(92,400,l),
(35,400,l),
(238,0,l)
);
},
{
closed = 1;
nodes = (
(704,0,l),
(704,400,l),
(544,400,l),
(544,0,l)
);
},
{
closed = 1;
nodes = (
(601,0,l),
(398,400,l),
(341,400,l),
(544,0,l)
);
}
);
width = 774;
}
);
metricLeft = "=H/2";
metricRight = H;
unicode = 119;
},
{
glyphname = x;
lastChange = "2024-11-23 12:02:27 +0000";
layers = (
{
layerId = m01;
shapes = (
{
closed = 1;
nodes = (
(359,400,l),
(188,400,l),
(188,0,l),
(359,0,l)
);
},
{
closed = 1;
nodes = (
(35,400,l),
(458,0,l),
(532,0,l),
(108,400,l)
);
}
);
width = 567;
}
);
metricLeft = "=H/2";
metricRight = "=H/2";
unicode = 120;
},
{
glyphname = y;
lastChange = "2024-11-23 12:54:51 +0000";
layers = (
{
anchors = (
{
name = bottom;
pos = (240,0);
},
{
name = top;
pos = (240,400);
}
);
layerId = m01;
shapes = (
{
closed = 1;
nodes = (
(410,-200,l),
(410,400,l),
(250,400,l),
(250,-200,l)
);
},
{
closed = 1;
nodes = (
(306,-19,l),
(92,400,l),
(35,400,l),
(260,-44,l)
);
}
);
width = 480;
}
);
metricLeft = "=H/2";
metricRight = H;
unicode = 121;
},
{
glyphname = z;
lastChange = "2024-11-23 13:20:03 +0000";
layers = (
{
anchors = (
{
name = bottom;
pos = (263,0);
},
{
name = center;
pos = (263,200);
},
{
name = top;
pos = (263,400);
}
);
layerId = m01;
shapes = (
{
closed = 1;
nodes = (
(178,0,l),
(492,0,l),
(492,57,l),
(349,57,l),
(349,400,l),
(35,400,l),
(35,342,l),
(178,342,l)
);
}
);
width = 527;
}
);
metricLeft = "=H/2";
metricRight = "=H/2";
unicode = 122;
},
{
glyphname = v.001;
lastChange = "2024-09-13 14:47:58 +0000";
layers = (
{
layerId = m01;
shapes = (
{
closed = 1;
nodes = (
(293,399,l),
(293,57,l),
(208,57,l),
(208,400,l),
(151,400,l),
(151,0,l),
(350,0,l),
(350,400,l)
);
}
);
width = 500;
}
);
},
{
glyphname = w.001;
lastChange = "2024-09-13 21:24:00 +0000";
layers = (
{
layerId = m01;
shapes = (
{
closed = 1;
nodes = (
(194,399,l),
(194,57,l),
(109,57,l),
(109,400,l),
(52,400,l),
(52,0,l),
(508,0,l),
(508,400,l),
(337,400,l),
(337,57,l),
(251,57,l),
(251,400,l)
);
}
);
width = 560;
}
);
},
{
glyphname = x.001;
lastChange = "2024-09-16 09:28:15 +0000";
layers = (
{
layerId = m01;
shapes = (
{
closed = 1;
nodes = (
(339,400,l),
(168,400,l),
(168,0,l),
(339,0,l)
);
},
{
closed = 1;
nodes = (
(419,172,l),
(476,172,l),
(476,400,l),
(419,400,l)
);
},
{
closed = 1;
nodes = (
(31,172,l),
(476,172,l),
(476,229,l),
(31,229,l)
);
},
{
closed = 1;
nodes = (
(31,0,l),
(88,0,l),
(88,229,l),
(31,229,l)
);
}
);
width = 500;
}
);
},
{
glyphname = y.001;
lastChange = "2024-09-13 14:31:18 +0000";
layers = (
{
layerId = m01;
shapes = (
{
closed = 1;
nodes = (
(422,-200,l),
(79,-200,l),
(79,-143,l),
(250,-143,l),
(250,0,l),
(79,0,l),
(79,400,l),
(136,400,l),
(136,57,l),
(250,57,l),
(250,400,l),
(422,400,l)
);
}
);
width = 500;
}
);
},
{
glyphname = zero;
lastChange = "2024-11-23 13:22:11 +0000";
layers = (
{
layerId = m01;
shapes = (
{
closed = 1;
nodes = (
(290,0,l),
(450,0,l),
(450,700,l),
(290,700,l)
);
},
{
closed = 1;
nodes = (
(70,0,l),
(230,0,l),
(230,700,l),
(70,700,l)
);
},
{
closed = 1;
nodes = (
(347,700,l),
(167,700,l),
(167,640,l),
(347,640,l)
);
},
{
closed = 1;
nodes = (
(347,60,l),
(167,60,l),
(167,0,l),
(347,0,l)
);
}
);
width = 520;
}
);
metricLeft = H;
metricRight = H;
unicode = 48;
},
{
glyphname = one;
lastChange = "2024-11-09 13:41:31 +0000";
layers = (
{
layerId = m01;
shapes = (
{
closed = 1;
nodes = (
(122,642,l),
(35,642,l),
(35,700,l),
(273,700,l),
(273,1,l),
(122,1,l)
);
}
);
width = 343;
}
);
metricLeft = "=H/2";
metricRight = H;
unicode = 49;
},
{
glyphname = two;
lastChange = "2024-11-09 13:44:09 +0000";
layers = (
{
layerId = m01;
shapes = (
{
closed = 1;
nodes = (
(95,640,l),
(95,578,l),
(35,578,l),
(35,700,l),
(316,700,l),
(316,60,l),
(468,60,l),
(468,0,l),
(156,0,l),
(156,640,l)
);
}
);
width = 503;
}
);
metricLeft = "=H/2";
metricRight = "=H/2";
unicode = 50;
},
{
glyphname = three;
lastChange = "2024-11-23 13:04:10 +0000";
layers = (
{
layerId = m01;
shapes = (
{
closed = 1;
nodes = (
(195,639,l),
(35,639,l),
(35,699,l),
(355,699,l),
(355,0,l),
(42,0,l),
(42,60,l),
(195,60,l),
(195,320,l),
(129,320,l),
(129,380,l),
(195,380,l)
);
}
);
width = 425;
}
);
metricLeft = "=H/2";
metricRight = H;
unicode = 51;
},
{
glyphname = four;
lastChange = "2024-11-09 15:09:53 +0000";
layers = (
{
layerId = m01;
shapes = (
{
closed = 1;
nodes = (
(95,700,l),
(95,364,l),
(215,364,l),
(215,700,l),
(375,700,l),
(375,364,l),
(466,364,l),
(466,304,l),
(375,304,l),
(375,0,l),
(215,0,l),
(215,304,l),
(35,304,l),
(35,700,l)
);
}
);
width = 489;
}
);
metricLeft = "=H/2";
metricRight = "=H/3";
unicode = 52;
},
{
glyphname = five;
lastChange = "2024-11-23 12:59:09 +0000";
layers = (
{
layerId = m01;
shapes = (
{
closed = 1;
nodes = (
(377,640,l),
(377,0,l),
(35,0,l),
(35,213,l),
(95,213,l),
(95,61,l),
(217,61,l),
(217,700,l),
(458,700,l),
(458,640,l)
);
}
);
width = 493;
}
);
metricLeft = "=H/2";
metricRight = "=H/2";
unicode = 53;
},
{
glyphname = six;
lastChange = "2024-11-09 13:45:20 +0000";
layers = (
{
layerId = m01;
shapes = (
{
closed = 1;
nodes = (
(70,0,l),
(230,0,l),
(230,700,l),
(70,700,l)
);
},
{
closed = 1;
nodes = (
(413,0,l),
(413,400,l),
(353,400,l),
(353,0,l)
);
},
{
closed = 1;
nodes = (
(374,400,l),
(199,400,l),
(199,340,l),
(374,340,l)
);
},
{
closed = 1;
nodes = (
(374,60,l),
(199,60,l),
(199,0,l),
(374,0,l)
);
},
{
closed = 1;
nodes = (
(410,700,l),
(206,700,l),
(206,640,l),
(410,640,l)
);
}
);
width = 448;
}
);
metricLeft = H;
metricRight = "=H/2";
unicode = 54;
},
{
glyphname = seven;
lastChange = "2024-11-23 13:02:39 +0000";
layers = (
{
layerId = m01;
shapes = (
{
closed = 1;
nodes = (
(315,0,l),
(315,700,l),
(35,700,l),
(35,578,l),
(95,578,l),
(95,640,l),
(155,640,l),
(155,0,l)
);
},
{
closed = 1;
nodes = (
(375,340,l),
(375,400,l),
(95,400,l),
(95,340,l)
);
}
);
width = 410;
}
);
metricLeft = "=H/2";
metricRight = "=H/2";
unicode = 55;
},
{
glyphname = eight;
lastChange = "2024-11-23 13:22:25 +0000";
layers = (
{
layerId = m01;
shapes = (
{
closed = 1;
nodes = (
(71,700,l),
(71,0,l)
);
},
{
closed = 1;
nodes = (
(291,0,l),
(451,0,l),
(451,700,l),
(291,700,l)
);
},
{
closed = 1;
nodes = (
(70,0,l),
(231,0,l),
(231,700,l),
(70,700,l)
);
},
{
closed = 1;
nodes = (
(355,700,l),
(175,700,l),
(175,640,l),
(355,640,l)
);
},
{
closed = 1;
nodes = (
(355,60,l),
(175,60,l),
(175,0,l),
(355,0,l)
);
},
{
closed = 1;
nodes = (
(355,361,l),
(175,361,l),
(175,302,l),
(355,302,l)
);
}
);
width = 521;
}
);
metricLeft = H;
metricRight = H;
unicode = 56;
},
{
glyphname = nine;
lastChange = "2024-11-09 13:41:25 +0000";
layers = (
{
layerId = m01;
shapes = (
{
closed = 1;
nodes = (
(217,304,l),
(35,304,l),
(35,700,l),
(378,700,l),
(378,0,l),
(217,0,l)
);
},
{
closed = 1;
nodes = (
(96,365,l),
(217,365,l),
(217,638,l),
(96,638,l)
);
}
);
width = 448;
}
);
metricLeft = "=H/2";
metricRight = H;
unicode = 57;
},
{
glyphname = period;
lastChange = "2024-11-07 16:11:57 +0000";
layers = (
{
layerId = m01;
shapes = (
{
closed = 1;
nodes = (
(111,0,l),
(111,76,l),
(35,76,l),
(35,0,l)
);
}
);
width = 146;
}
);
metricLeft = "=H/2";
metricRight = "=H/2";
unicode = 46;
},
{
glyphname = comma;
lastChange = "2024-11-07 16:12:03 +0000";
layers = (
{
layerId = m01;
shapes = (
{
closed = 1;
nodes = (
(92,-143,l),
(92,114,l),
(35,114,l),
(35,-143,l)
);
}
);
width = 127;
}
);
metricLeft = "=H/2";
metricRight = "=H/2";
unicode = 44;
},
{
glyphname = exclam;
lastChange = "2024-11-22 15:10:01 +0000";
layers = (
{
layerId = m01;
shapes = (
{
closed = 1;
nodes = (
(82,677,l),
(82,162,l),
(158,162,l),
(158,677,l)
);
},
{
pos = (47,0);
ref = period;
}
);
width = 240;
}
);
unicode = 33;
},
{
glyphname = question;
lastChange = "2024-11-22 15:09:39 +0000";
layers = (
{
layerId = m01;
shapes = (
{
closed = 1;
nodes = (
(286,150,l),
(218,150,l),
(218,639,l),
(96,639,l),
(96,487,l),
(35,487,l),
(35,700,l),
(286,700,l)
);
},
{
pos = (180,0);
ref = period;
}
);
width = 460;
}
);
unicode = 63;
},
{
glyphname = bullet;
lastChange = "2024-10-14 15:05:10 +0000";
layers = (
{
layerId = m01;
shapes = (
{
closed = 1;
nodes = (
(364,178,l),
(364,307,l),
(235,307,l),
(235,178,l)
);
}
);
width = 600;
}
);
unicode = 8226;
},
{
glyphname = asterisk;
lastChange = "2024-09-16 09:47:13 +0000";
layers = (
{
layerId = m01;
shapes = (
{
closed = 1;
nodes = (
(205,470,l),
(154,470,l),
(154,698,l),
(205,698,l)
);
},
{
closed = 1;
nodes = (
(65,620,l),
(90,662,l),
(295,548,l),
(270,506,l)
);
},
{
closed = 1;
nodes = (
(90,506,l),
(65,548,l),
(270,662,l),
(295,620,l)
);
}
);
width = 360;
}
);
unicode = 42;
},
{
glyphname = numbersign;
lastChange = "2024-09-16 09:31:06 +0000";
layers = (
{
layerId = m01;
shapes = (
{
closed = 1;
nodes = (
(228,400,l),
(157,400,l),
(157,0,l),
(228,0,l)
);
},
{
closed = 1;
nodes = (
(61,259,l),
(506,259,l),
(506,316,l),
(61,316,l)
);
},
{
closed = 1;
nodes = (
(418,400,l),
(347,400,l),
(347,0,l),
(418,0,l)
);
},
{
closed = 1;
nodes = (
(61,84,l),
(506,84,l),
(506,141,l),
(61,141,l)
);
}
);
width = 600;
}
);
unicode = 35;
},
{
glyphname = slash;
lastChange = "2024-11-09 13:38:20 +0000";
layers = (
{
layerId = m01;
shapes = (
{
closed = 1;
nodes = (
(338,700,l),
(281,700,l),
(70,0,l),
(127,0,l)
);
}
);
width = 373;
}
);
metricLeft = H;
metricRight = "=H/2";
unicode = 47;
},
{
glyphname = backslash;
lastChange = "2024-10-14 15:05:58 +0000";
layers = (
{
layerId = m01;
shapes = (
{
closed = 1;
nodes = (
(432,0,l),
(221,700,l),
(164,700,l),
(375,0,l)
);
}
);
width = 600;
}
);
unicode = 92;
},
{
glyphname = hyphen;
lastChange = "2024-11-07 16:12:08 +0000";
layers = (
{
layerId = m01;
shapes = (
{
closed = 1;
nodes = (
(382,299,l),
(35,299,l),
(35,242,l),
(382,242,l)
);
}
);
width = 417;
}
);
metricLeft = "=H/2";
metricRight = "=H/2";
unicode = 45;
},
{
glyphname = endash;
lastChange = "2024-09-13 15:59:04 +0000";
layers = (
{
layerId = m01;
shapes = (
{
closed = 1;
nodes = (
(517,298,l),
(60,298,l),
(60,241,l),
(517,241,l)
);
}
);
width = 600;
}
);
unicode = 8211;
},
{
glyphname = at;
lastChange = "2024-09-13 21:30:18 +0000";
layers = (
{
layerId = m01;
shapes = (
{
closed = 1;
nodes = (
(587,476,l),
(40,476,l),
(40,533,l),
(644,533,l),
(644,-131,l),
(40,-131,l),
(40,400,l),
(514,400,l),
(514,0,l),
(171,0,l),
(171,229,l),
(342,229,l),
(342,343,l),
(97,343,l),
(97,-74,l),
(587,-74,l)
);
},
{
closed = 1;
nodes = (
(228,57,l),
(342,57,l),
(342,171,l),
(228,171,l)
);
}
);
width = 700;
}
);
unicode = 64;
},
{
glyphname = ampersand;
lastChange = "2024-10-10 14:00:50 +0000";
layers = (
{
layerId = m01;
shapes = (
{
closed = 1;
nodes = (
(533,0,l),
(533,461,l),
(411,461,l),
(411,700,l),
(66,700,l),
(66,0,l)
);
},
{
closed = 1;
nodes = (
(127,401,l),
(411,401,l),
(411,61,l),
(127,61,l)
);
},
{
closed = 1;
nodes = (
(127,639,l),
(289,639,l),
(289,461,l),
(127,461,l)
);
},
{
closed = 1;
nodes = (
(411,-97,l),
(533,-97,l),
(533,33,l),
(411,33,l)
);
}
);
width = 600;
}
);
unicode = 38;
},
{
glyphname = degree;
lastChange = "2024-09-13 15:52:23 +0000";
layers = (
{
layerId = m01;
shapes = (
{
closed = 1;
nodes = (
(278,469,l),
(278,698,l),
(50,698,l),
(50,469,l)
);
},
{
closed = 1;
nodes = (
(107,641,l),
(221,641,l),
(221,526,l),
(107,526,l)
);
}
);
width = 320;
}
);
unicode = 176;
},
{
glyphname = bar;
lastChange = "2024-09-13 21:23:03 +0000";
layers = (
{
layerId = m01;
shapes = (
{
closed = 1;
nodes = (
(229,-143,l),
(229,800,l),
(172,800,l),
(172,-143,l)
);
}
);
width = 400;
}
);
unicode = 124;
},
{
glyphname = plus;
lastChange = "2024-11-23 12:59:44 +0000";
layers = (
{
layerId = m01;
shapes = (
{
closed = 1;
nodes = (
(417,296,l),
(70,296,l),
(70,239,l),
(417,239,l)
);
},
{
closed = 1;
nodes = (
(215,441,l),
(215,94,l),
(272,94,l),
(272,441,l)
);
}
);
width = 487;
}
);
metricLeft = H;
metricRight = H;
unicode = 43;
},
{
glyphname = multiply;
lastChange = "2024-10-14 15:08:21 +0000";
layers = (
{
layerId = m01;
shapes = (
{
closed = 1;
nodes = (
(357,465,l),
(272,465,l),
(57,121,l),
(142,121,l)
);
},
{
closed = 1;
nodes = (
(357,121,l),
(148,466,l),
(64,466,l),
(272,121,l)
);
}
);
width = 400;
}
);
unicode = 215;
},
{
glyphname = dieresiscomb;
lastChange = "2024-10-14 15:18:09 +0000";
layers = (
{
anchors = (
{
name = _top;
pos = (156,400);
},
{
name = top;
pos = (149,564);
}
);
layerId = m01;
shapes = (
{
closed = 1;
nodes = (
(109,488,l),
(109,564,l),
(33,564,l),
(33,488,l)
);
},
{
closed = 1;
nodes = (
(264,488,l),
(264,564,l),
(188,564,l),
(188,488,l)
);
}
);
width = 300;
}
);
unicode = 776;
},
{
glyphname = dotaccentcomb;
lastChange = "2024-11-23 11:54:42 +0000";
layers = (
{
layerId = m01;
shapes = (
{
closed = 1;
nodes = (
(188,488,l),
(188,564,l),
(112,564,l),
(112,488,l)
);
}
);
width = 300;
}
);
unicode = 775;
},
{
glyphname = acutecomb;
lastChange = "2024-11-20 19:58:42 +0000";
layers = (
{
anchors = (
{
name = _top;
pos = (122,491);
},
{
name = top;
pos = (122,799);
}
);
layerId = m01;
shapes = (
{
closed = 1;
nodes = (
(150,540,l),
(150,700,l),
(90,700,l),
(90,540,l)
);
}
);
width = 240;
}
);
unicode = 769;
},
{
glyphname = hungarumlautcomb;
lastChange = "2024-11-22 15:12:50 +0000";
layers = (
{
anchors = (
{
name = _top;
pos = (118,401);
},
{
name = top;
pos = (44,800);
}
);
layerId = m01;
shapes = (
{
closed = 1;
nodes = (
(100,493,l),
(100,750,l),
(40,750,l),
(40,493,l)
);
},
{
closed = 1;
nodes = (
(200,494,l),
(200,751,l),
(140,750,l),
(140,493,l)
);
}
);
width = 240;
}
);
unicode = 779;
},
{
glyphname = circumflexcomb;
lastChange = "2024-11-22 15:11:20 +0000";
layers = (
{
anchors = (
{
name = _top;
pos = (146,469);
},
{
name = top;
pos = (146,700);
}
);
layerId = m01;
shapes = (
{
closed = 1;
nodes = (
(245,700,l),
(46,700,l),
(46,526,l),
(103,526,l),
(103,643,l),
(188,643,l),
(188,527,l),
(245,526,l)
);
}
);
width = 300;
}
);
unicode = 770;
},
{
glyphname = caroncomb;
lastChange = "2024-11-22 11:42:26 +0000";
layers = (
{
anchors = (
{
name = _top;
pos = (146,428);
},
{
name = top;
pos = (146,700);
}
);
layerId = m01;
shapes = (
{
closed = 1;
nodes = (
(188,699,l),
(188,583,l),
(103,583,l),
(103,700,l),
(46,700,l),
(46,526,l),
(245,526,l),
(245,700,l)
);
}
);
width = 300;
}
);
unicode = 780;
},
{
glyphname = ringcomb;
lastChange = "2024-11-23 12:50:24 +0000";
layers = (
{
anchors = (
{
name = _top;
pos = (146,400);
},
{
name = top;
pos = (146,700);
}
);
layerId = m01;
shapes = (
{
closed = 1;
nodes = (
(245,700,l),
(46,700,l),
(46,558,l),
(103,558,l),
(103,643,l),
(188,643,l),
(188,559,l),
(245,559,l)
);
},
{
closed = 1;
nodes = (
(188,643,l),
(188,558,l),
(103,558,l),
(103,643,l),
(46,643,l),
(46,501,l),
(245,501,l),
(245,643,l)
);
}
);
width = 300;
}
);
unicode = 778;
},
{
glyphname = WIP;
lastChange = "2024-10-10 10:40:03 +0000";
layers = (
{
layerId = m01;
shapes = (
{
closed = 1;
nodes = (
(318,700,l),
(157,700,l),
(310,0,l),
(477,0,l)
);
}
);
width = 600;
}
);
},
{
glyphname = aha_mark;
lastChange = "2024-11-23 13:06:04 +0000";
layers = (
{
layerId = m01;
shapes = (
{
attr = {
fillColor = (45,56,75,255);
};
closed = 1;
nodes = (
(618,118,o),
(480,-49,o),
(309,-82,c),
(139,-115,o),
(1,-3,o),
(1,169,c),
(1,341,o),
(139,508,o),
(309,541,c),
(480,575,o),
(618,462,o),
(618,290,c)
);
},
{
attr = {
fillColor = (45,56,75,255);
};
closed = 1;
nodes = (
(308,308,l),
(243,409,l),
(186,365,l),
(252,265,l),
(69,229,l),
(69,157,l),
(224,188,l),
(156,91,l),
(222,46,l),
(311,173,l),
(394,44,l),
(451,88,l),
(367,216,l),
(550,254,l),
(550,324,l),
(394,292,l),
(456,383,l),
(391,426,l)
);
}
);
width = 620;
}
);
},
